HIERARCHY
ROOT Hips
{
	OFFSET 0.000000 0.000000 0.000000 
	CHANNELS 6 Xposition Yposition Zposition Zrotation Xrotation Yrotation
	JOINT Spine
	{
		OFFSET -0.000000 8.280624 0.000000 
		CHANNELS 3 Zrotation Xrotation Yrotation
		JOINT Spine1
		{
			OFFSET -0.000000 24.860672 0.000000 
			CHANNELS 3 Zrotation Xrotation Yrotation
			JOINT Neck
			{
				OFFSET -0.000000 24.758574 2.250779 
				CHANNELS 3 Zrotation Xrotation Yrotation
				JOINT Head
				{
					OFFSET -0.000000 14.137651 -2.019665 
					CHANNELS 3 Zrotation Xrotation Yrotation
					End Site
					{
						OFFSET -0.000000 25.245806 0.000000 
					}
				}
			}
			JOINT LeftShoulder
			{
				OFFSET 4.021533 22.370487 -0.301823 
				CHANNELS 3 Zrotation Xrotation Yrotation
				JOINT LeftArm
				{
					OFFSET 12.928750 0.000000 0.000000 
					CHANNELS 3 Zrotation Xrotation Yrotation
					JOINT LeftForeArm
					{
						OFFSET 29.110218 0.000000 0.000000 
						CHANNELS 3 Zrotation Xrotation Yrotation
						JOINT LeftHand
						{
							OFFSET 26.112843 0.000000 0.000000 
							CHANNELS 3 Zrotation Xrotation Yrotation
							End Site
							{
								OFFSET 15.147485 0.000000 0.000000 
							}
						}
					}
				}
			}
			JOINT RightShoulder
			{
				OFFSET -4.040554 22.370487 -0.301823 
				CHANNELS 3 Zrotation Xrotation Yrotation
				JOINT RightArm
				{
					OFFSET -12.928750 0.000000 0.000000 
					CHANNELS 3 Zrotation Xrotation Yrotation
					JOINT RightForeArm
					{
						OFFSET -29.110218 0.000000 0.000000 
						CHANNELS 3 Zrotation Xrotation Yrotation
						JOINT RightHand
						{
							OFFSET -26.112843 0.000000 0.000000 
							CHANNELS 3 Zrotation Xrotation Yrotation
							End Site
							{
								OFFSET -15.147485 0.000000 0.000000 
							}
						}
					}
				}
			}
		}
	}
	JOINT LeftUpLeg
	{
		OFFSET 10.098323 0.000000 0.000000 
		CHANNELS 3 Zrotation Xrotation Yrotation
		JOINT LeftLeg
		{
			OFFSET -0.000000 -44.180832 0.000000 
			CHANNELS 3 Zrotation Xrotation Yrotation
			JOINT LeftFoot
			{
				OFFSET -0.000000 -40.401024 0.000000 
				CHANNELS 3 Zrotation Xrotation Yrotation
				JOINT LeftToeBase
				{
					OFFSET -0.000000 -6.563910 15.147485 
					CHANNELS 3 Zrotation Xrotation Yrotation
					End Site
					{
						OFFSET -0.000000 0.000000 4.039329 
					}
				}
			}
		}
	}
	JOINT RightUpLeg
	{
		OFFSET -10.098323 0.000000 0.000000 
		CHANNELS 3 Zrotation Xrotation Yrotation
		JOINT RightLeg
		{
			OFFSET -0.000000 -44.180832 0.000000 
			CHANNELS 3 Zrotation Xrotation Yrotation
			JOINT RightFoot
			{
				OFFSET -0.000000 -40.401024 0.000000 
				CHANNELS 3 Zrotation Xrotation Yrotation
				JOINT RightToeBase
				{
					OFFSET -0.000000 -6.563910 15.147485 
					CHANNELS 3 Zrotation Xrotation Yrotation
					End Site
					{
						OFFSET -0.000000 0.000000 4.039329 
					}
				}
			}
		}
	}
}
MOTION
Frames: 7
Frame Time: 0.008333
-49.431149 101.632225 -33.058243 -23.485996 22.790718 -134.165863 8.229796 14.869797 10.990633 -4.927427 -17.346395 11.314298 -5.526782 16.774700 -23.010555 15.461371 20.311239 -24.741615 -4.832518 -1.431247 -24.349257 -48.574928 -10.554626 -42.965790 2.187315 -22.589060 -110.612183 47.074505 -18.569838 2.610790 -21.341406 -31.271353 21.460289 35.546745 12.821527 74.786987 -3.733309 -21.490580 85.031151 6.385149 -19.266747 -18.594517 -6.015312 32.218967 -48.370968 -1.153761 -1.397769 -15.378037 -9.010624 26.869963 4.223696 0.000000 0.000000 0.000000 16.847748 56.579514 -32.226879 -2.910785 15.687127 12.107924 15.528385 39.312763 -28.262249 0.000000 0.000000 0.000000 
-49.486992 101.685608 -33.196526 -23.582193 22.717064 -133.618835 8.396307 14.980330 10.925941 -5.338102 -17.494854 11.209854 -5.520454 16.988028 -23.020212 15.457678 20.219341 -24.749525 -4.993453 -1.373681 -24.542355 -48.597847 -11.426814 -43.041901 2.257042 -22.308401 -111.929695 49.100464 -18.612436 1.328151 -21.714624 -31.770594 21.230785 36.188366 12.768292 74.977036 -3.536233 -20.557570 86.894104 6.237618 -18.356981 -18.397121 -5.691031 32.361187 -48.759434 -1.196118 -1.551671 -15.555113 -8.912541 26.984055 4.136076 0.000000 0.000000 0.000000 17.551926 56.591225 -33.067585 -2.912235 15.486810 12.113404 15.528385 39.312763 -28.262249 0.000000 0.000000 0.000000 
-49.546318 101.735878 -33.334358 -23.690680 22.651924 -133.062042 8.549829 15.070558 10.849396 -5.728533 -17.624348 11.093597 -5.504093 17.237104 -23.026381 15.466105 20.114342 -24.754255 -5.124718 -1.277514 -24.724892 -48.600231 -12.305256 -43.160019 3.387543 -22.717276 -112.454712 49.566032 -17.606028 0.825494 -22.069118 -32.223293 21.027861 36.529415 12.515066 75.136963 -3.509219 -19.550070 88.454407 6.830723 -17.311026 -17.474529 -5.387528 32.510353 -49.204155 -1.231310 -1.669147 -15.723528 -8.748001 27.093752 4.045421 0.000000 0.000000 0.000000 18.270864 56.607265 -33.930546 -2.918485 15.289736 12.092635 15.528385 39.312763 -28.262249 0.000000 0.000000 0.000000 
-49.602753 101.785156 -33.469398 -23.789032 22.594578 -132.511353 8.695427 15.142242 10.773006 -6.086522 -17.748554 10.979710 -5.443575 17.474051 -23.035084 15.398160 20.004066 -24.756071 -5.238580 -1.306275 -24.913033 -48.665943 -13.106947 -43.174412 3.387543 -22.717276 -112.454712 49.566032 -17.606028 0.825494 -22.459143 -32.660442 20.800112 36.881748 12.258415 75.310692 -3.102516 -18.682066 90.173828 6.616026 -16.693232 -17.492384 -5.085630 32.655952 -49.711933 -1.258853 -1.769049 -15.851027 -8.574929 27.184961 3.986494 0.000000 0.000000 0.000000 19.003754 56.603996 -34.775581 -2.935533 15.103758 12.068178 15.528385 39.312763 -28.262249 0.000000 0.000000 0.000000 
-49.661995 101.833618 -33.598053 -23.887314 22.545839 -131.993668 8.834052 15.200954 10.710897 -6.414462 -17.853468 10.883368 -5.428707 17.724016 -23.040224 15.400531 19.906199 -24.760366 -5.354602 -1.355588 -25.132420 -48.737137 -13.948467 -43.140755 6.024199 -24.722805 -113.551086 49.071136 -15.680717 0.924083 -22.887150 -33.106129 20.551460 37.270782 12.033335 75.467262 -2.507308 -17.698404 91.902542 5.797163 -16.071850 -17.362465 -4.825602 32.809673 -50.229279 -1.258597 -1.840854 -15.904882 -8.388769 27.260498 3.934284 0.000000 0.000000 0.000000 19.690687 56.605366 -35.531761 -2.942317 14.922913 12.042798 15.528385 39.312763 -28.262249 0.000000 0.000000 0.000000 
-49.723572 101.884842 -33.728756 -23.997164 22.523859 -131.504700 8.984091 15.268227 10.649227 -6.754857 -17.939806 10.788367 -5.356152 17.925653 -23.042336 15.345332 19.849411 -24.761271 -5.449765 -1.281583 -25.325811 -48.882793 -15.325520 -43.261879 6.866540 -24.942432 -114.259529 49.252224 -14.637025 0.657452 -23.246042 -33.560246 20.336386 35.675323 12.436544 77.300751 -3.506922 -19.305050 92.012260 5.158235 -16.627031 -17.881073 -4.596681 32.996555 -50.742683 -1.228332 -1.887582 -15.916208 -8.159462 27.340027 3.872368 0.000000 0.000000 0.000000 20.357468 56.629646 -36.182232 -2.944305 14.748607 12.035502 15.528385 39.312763 -28.262249 0.000000 0.000000 0.000000 
-49.776222 101.938698 -33.857422 -24.091108 22.524706 -131.064774 9.120644 15.343160 10.601611 -7.045817 -18.044165 10.712556 -5.195408 18.112474 -23.049377 15.129632 19.760725 -24.752996 -5.540050 -1.191048 -25.503601 -48.984261 -16.630447 -43.381474 7.632710 -25.105457 -114.861145 49.511845 -13.750032 0.120242 -23.581610 -33.958504 20.146191 33.676266 12.852423 79.518402 -4.923502 -21.506166 91.699417 4.656285 -17.453102 -18.793554 -4.378951 33.185085 -51.217236 -1.185407 -1.916666 -15.903160 -7.931938 27.423412 3.832730 0.000000 0.000000 0.000000 21.005396 56.642963 -36.710045 -2.966679 14.597744 12.038727 15.528385 39.312763 -28.262249 0.000000 0.000000 0.000000 
